<?xml version="1.0"?>
<svg xmlns="http://www.w3.org/2000/svg" id="Capa_1" enable-background="new 0 0 512 512" height="512px" viewBox="0 0 512 512" width="512px" class=""><g><g><g><g><g><g><path d="m487.32 77.831h-25.874v-59.834c0-7.145 5.792-12.937 12.937-12.937 7.145 0 12.937 5.792 12.937 12.937z" fill="#676e84" data-original="#676E84" class=""/><path d="m451.046 63.564v383.136l15.273 58.71c2.286 8.787 14.762 8.787 17.048 0l15.273-58.71v-383.136c0-5.586-4.528-10.114-10.114-10.114h-27.366c-5.586 0-10.114 4.528-10.114 10.114z" fill="#e5a747" data-original="#E5A747" class="active-path" style="fill:#1565C0" data-old_color="#e5a747"/><path d="m483.367 505.41 15.273-58.71h-47.595l15.273 58.71c2.287 8.787 14.763 8.787 17.049 0z" fill="#676e84" data-original="#676E84" class=""/></g><path d="m451.046 89.699h47.595v31.922h-47.595z" fill="#676e84" data-original="#676E84" class=""/></g></g></g><g><g><g><g><path d="m390.416 512h-319.746c-13.532 0-24.501-10.97-24.501-24.501v-462.998c-.001-13.531 10.969-24.501 24.501-24.501h319.746c13.532 0 24.501 10.97 24.501 24.501v462.997c0 13.532-10.969 24.502-24.501 24.502z" fill="#eaecf0" data-original="#EAECF0"/><path d="m390.416 0h-29.791v512h29.791c13.532 0 24.501-10.97 24.501-24.501v-462.998c0-13.531-10.969-24.501-24.501-24.501z" fill="#d3d7de" data-original="#D3D7DE" class="" style="fill:#D3D7DE"/></g><g><path d="m248.583 66.723h-122.158c-4.267 0-7.726-3.459-7.726-7.726s3.459-7.726 7.726-7.726h122.158c4.267 0 7.726 3.459 7.726 7.726s-3.459 7.726-7.726 7.726z" fill="#676e84" data-original="#676E84" class=""/></g><g><g><path d="m356.309 149.365h-229.884c-4.267 0-7.726-3.459-7.726-7.726s3.459-7.726 7.726-7.726h229.885c4.268 0 7.726 3.459 7.726 7.726s-3.459 7.726-7.727 7.726z" fill="#676e84" data-original="#676E84" class=""/></g><g><path d="m356.309 224.897h-229.884c-4.267 0-7.726-3.459-7.726-7.726s3.459-7.726 7.726-7.726h229.885c4.268 0 7.726 3.459 7.726 7.726s-3.459 7.726-7.727 7.726z" fill="#676e84" data-original="#676E84" class=""/></g><g><path d="m356.309 300.43h-229.884c-4.267 0-7.726-3.459-7.726-7.726s3.459-7.726 7.726-7.726h229.885c4.268 0 7.726 3.459 7.726 7.726s-3.459 7.726-7.727 7.726z" fill="#676e84" data-original="#676E84" class=""/></g><g><path d="m356.309 375.962h-229.884c-4.267 0-7.726-3.459-7.726-7.726s3.459-7.726 7.726-7.726h229.885c4.268 0 7.726 3.459 7.726 7.726s-3.459 7.726-7.727 7.726z" fill="#676e84" data-original="#676E84" class=""/></g><g><path d="m356.309 451.494h-229.884c-4.267 0-7.726-3.459-7.726-7.726s3.459-7.726 7.726-7.726h229.885c4.268 0 7.726 3.459 7.726 7.726s-3.459 7.726-7.727 7.726z" fill="#676e84" data-original="#676E84" class=""/></g></g></g></g></g><g fill="#676e84"><path d="m61.882 92.538h-31.427c-9.441 0-17.095-7.654-17.095-17.095 0-9.441 7.654-17.095 17.095-17.095h31.427c9.441 0 17.095 7.654 17.095 17.095 0 9.442-7.653 17.095-17.095 17.095z" data-original="#676E84" class=""/><path d="m61.882 182.817h-31.427c-9.441 0-17.095-7.654-17.095-17.095 0-9.441 7.654-17.095 17.095-17.095h31.427c9.441 0 17.095 7.654 17.095 17.095 0 9.441-7.653 17.095-17.095 17.095z" data-original="#676E84" class=""/><path d="m61.882 273.095h-31.427c-9.441 0-17.095-7.654-17.095-17.095 0-9.441 7.654-17.095 17.095-17.095h31.427c9.441 0 17.095 7.654 17.095 17.095 0 9.441-7.653 17.095-17.095 17.095z" data-original="#676E84" class=""/><path d="m61.882 363.374h-31.427c-9.441 0-17.095-7.654-17.095-17.095 0-9.441 7.654-17.095 17.095-17.095h31.427c9.441 0 17.095 7.654 17.095 17.095 0 9.441-7.653 17.095-17.095 17.095z" data-original="#676E84" class=""/><path d="m61.882 453.652h-31.427c-9.441 0-17.095-7.654-17.095-17.095 0-9.441 7.654-17.095 17.095-17.095h31.427c9.441 0 17.095 7.654 17.095 17.095 0 9.441-7.653 17.095-17.095 17.095z" data-original="#676E84" class=""/></g></g><link xmlns="" type="text/css" id="dark-mode" rel="stylesheet"/><style xmlns="" type="text/css" id="dark-mode-custom-style"/></g> </svg>
